<?xml version="1.0" encoding="UTF-8" standalone="no"?>
<!DOCTYPE svg PUBLIC "-//W3C//DTD SVG 1.1//EN" "http://www.w3.org/Graphics/SVG/1.1/DTD/svg11.dtd">
<svg version="1.1" xmlns="http://www.w3.org/2000/svg" xmlns:xlink="http://www.w3.org/1999/xlink" preserveAspectRatio="xMidYMid meet" viewBox="0 0 640 640" width="640" height="640"><defs><path d="M560.2 323.47C560.2 453.57 454.58 559.19 324.48 559.19C194.39 559.19 88.77 453.57 88.77 323.47C88.77 193.38 194.39 87.76 324.48 87.76C454.58 87.76 560.2 193.38 560.2 323.47Z" id="b1Dcp9ZCPi"></path><path d="M159.56 298.8C163.09 303.38 165.18 308.91 165.56 314.69C165.71 317.04 165.9 319.91 166.13 323.44C166.21 324.68 167.67 325.3 168.62 324.49C170.32 323.05 171.09 322.4 172.29 321.39C175.35 318.79 179.43 317.73 183.38 318.51C184.9 318.81 184.98 318.83 186.94 319.22C189.56 319.73 191.93 321.13 193.64 323.18C195.83 325.78 199.75 330.45 201.94 333.06C202.98 334.3 205 333.76 205.27 332.16C205.94 328.31 206.66 324.21 207.18 321.21C208.11 315.87 211.07 311.11 215.46 307.92C217.81 306.21 216.5 307.16 218.47 305.73C223.65 301.96 230.7 302.05 235.79 305.95C236.95 306.84 236.58 306.56 238.93 308.35C240.44 309.51 242.59 309.36 243.93 307.99C245.11 306.78 245.24 306.65 246.15 305.72C248.5 303.32 251.76 302.04 255.11 302.22C257.14 302.33 257.33 302.34 259.21 302.43C263.05 302.64 266.62 304.47 269.02 307.48C270.16 308.9 270.45 309.26 271.75 310.88C273.58 313.17 276.48 314.33 279.39 313.92C280.84 313.71 279.58 313.89 280.8 313.72C284.57 313.18 288.41 314.07 291.57 316.22C293.83 317.75 295.62 318.97 297.86 320.49C301.08 322.68 303.34 326.03 304.15 329.84C304.71 332.43 304.62 332.02 305.06 334.05C306.31 339.87 306.94 345.82 306.94 351.77C306.94 355.05 306.94 356.69 306.94 360.15C306.94 365.46 307.79 370.72 309.47 375.75C309.7 376.46 308.23 372.04 308.55 373C309.94 377.18 311.94 381.14 314.46 384.75C315.5 386.23 315.21 385.81 316.34 387.44C318.49 390.5 319.64 394.15 319.64 397.89C319.64 399.48 319.64 396.14 319.64 397.14C319.64 402.93 319.17 408.71 318.22 414.42C318.03 415.58 318.66 411.78 318.42 413.26C317.66 417.82 315.9 422.15 313.25 425.94C311.35 428.65 311.17 428.91 309.65 431.09C305.83 436.55 300.3 440.58 293.94 442.54C291.13 443.41 295.9 441.93 293.94 442.54C285.07 445.28 275.44 443.85 267.75 438.64C265.79 437.32 267.3 438.34 264.14 436.2C260.17 433.51 257.4 429.38 256.42 424.69C256.05 422.91 256.03 422.8 255.55 420.49C254.9 417.39 254.91 414.19 255.57 411.1C256.05 408.86 256.6 406.24 257.11 403.85C257.66 401.26 258.8 398.83 260.43 396.75C261.15 395.83 260.47 396.69 261.1 395.88C261.61 395.24 260.81 394.39 260.14 394.86C258.68 395.87 259.44 395.35 258.29 396.15C254.73 398.63 251.77 401.87 249.63 405.65C248.48 407.68 250.28 404.5 249.63 405.65C245.9 412.22 244.45 419.85 245.52 427.34C245.84 429.63 245.65 428.26 246.09 431.37C246.78 436.26 248.37 440.98 250.77 445.29C251.19 446.05 248.36 440.97 248.67 441.52C251.46 446.53 255.01 451.09 259.18 455.03C259.75 455.56 255.6 451.65 256.28 452.29C260.07 455.86 264.45 458.73 269.24 460.78C270.75 461.44 269.28 460.8 271.1 461.58C274.9 463.21 278.9 464.29 283 464.8C284.61 465 279.64 464.38 280.34 464.47C287.43 465.35 294.61 464.93 301.55 463.25C303.91 462.68 300.25 463.57 302.54 463.01C309.56 461.31 315.84 457.38 320.45 451.82C322.61 449.21 323.54 448.09 326.09 445.01C329.51 440.88 332.14 436.16 333.86 431.09C334.89 428.03 334.65 428.73 335.5 426.22C337.84 419.31 339.17 412.09 339.46 404.79C339.58 401.79 339.63 400.33 339.78 396.46C339.95 392.12 341.51 387.95 344.23 384.56C344.92 383.7 343.94 384.92 344.92 383.7C346.76 381.4 348.28 378.86 349.44 376.14C350.25 374.24 348.9 377.42 349.2 376.71C352.02 370.1 353.27 362.91 352.84 355.73C352.7 353.38 352.86 356.06 352.7 353.41C352.33 347.13 352.56 340.83 353.39 334.59C353.54 333.43 352.99 337.58 353.2 335.98C353.83 331.29 355.9 326.9 359.12 323.43C360.76 321.66 362.01 320.32 363.97 318.21C366.12 315.89 369.14 314.58 372.3 314.58C374.55 314.58 376.98 314.58 379.39 314.58C382.06 314.58 384.6 313.5 386.46 311.59C388.18 309.82 389.97 307.97 391.57 306.32C393.79 304.04 396.84 302.75 400.02 302.75C401.46 302.75 400.33 302.75 401.65 302.75C405.22 302.75 408.66 304.1 411.28 306.53C412.29 307.46 412.52 307.67 413.85 308.9C415.29 310.23 417.47 310.35 419.03 309.18C420.78 307.88 422.1 306.88 423.55 305.81C426.25 303.79 429.61 302.88 432.96 303.26C434.43 303.43 431.92 303.14 432.96 303.26C437.65 303.8 441.9 306.27 444.69 310.08C446.05 311.92 446.66 312.76 448.24 314.92C450.37 317.82 451.96 321.08 452.93 324.55C453.58 326.88 454.52 330.23 455.29 332.96C455.6 334.08 457.14 334.22 457.65 333.16C458.17 332.08 458.33 331.74 458.87 330.62C459.78 328.72 460.96 326.95 462.37 325.38C463.7 323.9 462.83 324.87 463.48 324.15C467.01 320.21 472.06 317.96 477.35 317.96C478.39 317.96 475.71 317.96 477.37 317.96C480.71 317.96 483.94 319.14 486.48 321.31C487.52 322.19 488.39 322.93 489.85 324.18C490.6 324.82 491.78 324.34 491.85 323.34C492.02 321.25 491.9 322.82 491.95 322.09C492.43 315.99 493.77 309.98 495.92 304.24C496.29 303.27 494.89 306.98 495.45 305.51C496.96 301.48 499.41 297.86 502.59 294.96C503.92 293.75 502.97 294.62 504.27 293.43C507.5 290.48 511.55 288.56 515.88 287.93C517.52 287.69 517.74 287.66 519.86 287.35C521.87 287.05 522.92 284.8 521.86 283.07C518.53 277.62 512.6 267.92 509.72 263.22C506.71 258.3 502.96 253.88 498.59 250.11C496.39 248.22 497.34 249.03 495.38 247.34C490.22 242.89 484.54 239.07 478.47 235.97C476.21 234.82 476.54 234.99 473.77 233.57C469.37 231.32 464.69 229.65 459.86 228.59C451.86 226.83 434.6 223.05 426.47 221.26C422.08 220.3 417.56 220.02 413.09 220.44C407.41 220.97 394.96 222.13 388.74 222.71C386.74 222.9 385.5 224.98 386.28 226.83C387.79 230.4 388.41 231.87 389.33 234.06C392.28 241.04 393.37 248.67 392.51 256.2C392.17 259.2 392.64 255.04 392.35 257.62C391.35 266.29 386.78 274.14 379.74 279.29C377.99 280.57 381.39 278.09 379.04 279.8C373.7 283.71 367.84 286.86 361.64 289.16C359.32 290.02 359.4 289.99 356.5 291.07C352.59 292.52 348.2 291.46 345.38 288.4C343.95 286.84 344.91 287.89 343.63 286.49C340.27 282.85 339.05 277.72 340.42 272.95C340.86 271.42 340.68 272.04 341.3 269.89C342.17 266.84 342.81 263.72 343.19 260.57C343.35 259.31 343.15 260.89 343.29 259.79C343.73 256.18 343.14 252.53 341.59 249.25C340.92 247.82 341.53 249.12 340.92 247.83C339.15 244.07 336.47 240.82 333.13 238.36C332.41 237.82 333.87 238.9 332.78 238.1C330.88 236.69 328.26 236.8 326.48 238.36C325.6 239.12 326.19 238.61 325.35 239.34C323.19 241.23 321.23 243.33 319.5 245.62C318.85 246.47 320.05 244.89 319.53 245.57C317.39 248.39 316.04 251.74 315.62 255.26C315.41 257.02 315.57 255.69 315.4 257.14C314.86 261.68 315.52 266.28 317.32 270.48C317.58 271.09 316.88 269.46 317.46 270.8C318.23 272.61 318.77 274.52 319.04 276.47C319.16 277.3 319.02 276.33 319.12 277.02C319.45 279.32 318.8 281.64 317.32 283.42C315.82 285.23 313.66 287.84 312.16 289.65C310.73 291.37 308.47 292.18 306.27 291.74C302.56 291 303.73 291.23 302.2 290.92C292.75 289.04 284.03 284.5 277.07 277.83C276.76 277.53 275.97 276.77 274.7 275.56C273.68 274.47 273.04 273.79 272.78 273.52C269 269.5 266.61 264.38 265.96 258.9C265.82 257.7 266.16 260.59 265.96 258.9C265.49 254.94 265.65 250.93 266.45 247.02C266.7 245.83 267.31 242.84 268.29 238.06C271.4 231.51 273.35 227.42 274.13 225.78C274.97 224.02 273.77 221.96 271.82 221.83C265.77 221.42 260.93 221.1 257.19 220.85C246.81 220.16 236.38 220.42 226.05 221.64C218.2 222.57 229.16 221.28 226.05 221.64C200.52 224.66 176.58 235.6 157.59 252.92C156.8 253.64 166.81 244.51 161.81 249.07C156.37 254.04 151.33 259.42 146.75 265.19C146 266.12 147.86 263.79 146.42 265.6C144.17 268.44 142.24 271.51 140.66 274.76C139.5 277.16 137.66 280.97 136.32 283.75C135.6 285.23 136.51 286.99 138.14 287.26C141.01 287.73 143.47 288.13 145.62 288.49C150.03 289.21 153.99 291.58 156.72 295.11C158.37 297.26 158.14 296.96 159.56 298.8Z" id="djWUeFU5j"></path></defs><g><g><g><use xlink:href="#b1Dcp9ZCPi" opacity="1" fill="#000000" fill-opacity="1"></use></g><g><use xlink:href="#djWUeFU5j" opacity="1" fill="#ffffff" fill-opacity="1"></use><g><use xlink:href="#djWUeFU5j" opacity="1" fill-opacity="0" stroke="#ffffff" stroke-width="1" stroke-opacity="1"></use></g></g></g></g></svg>